<?xml version="1.0" standalone="no"?>
<!DOCTYPE svg PUBLIC "-//W3C//DTD SVG 20010904//EN"
 "http://www.w3.org/TR/2001/REC-SVG-20010904/DTD/svg10.dtd">
<svg version="1.0" xmlns="http://www.w3.org/2000/svg"
 width="160.000000pt" height="160.000000pt" viewBox="0 0 160.000000 160.000000"
 preserveAspectRatio="xMidYMid meet">
<metadata>
Created by potrace 1.14, written by Peter Selinger 2001-2017
</metadata>
<g transform="translate(0.000000,160.000000) scale(0.100000,-0.100000)"
fill="#000000" stroke="none">
<path d="M758 1584 c-2 -1 -19 -4 -38 -7 -19 -2 -51 -11 -71 -20 -32 -13 -38
-21 -45 -59 -4 -23 -8 -59 -8 -78 -1 -26 -7 -38 -28 -49 -25 -15 -28 -14 -47
10 -31 40 -94 79 -118 74 -37 -6 -89 -35 -113 -60 -20 -21 -21 -27 -10 -62 7
-21 21 -53 32 -70 22 -36 18 -56 -16 -95 -20 -23 -29 -25 -57 -19 -35 7 -71 6
-124 -3 -29 -6 -43 -24 -59 -82 -7 -22 28 -60 87 -93 31 -18 32 -20 30 -80 -1
-72 -11 -86 -60 -96 -19 -3 -50 -16 -69 -28 -28 -18 -33 -27 -30 -52 2 -16 4
-37 5 -46 1 -21 41 -36 116 -44 33 -4 60 -7 60 -8 0 -1 9 -20 19 -42 28 -62
27 -72 -11 -112 -19 -21 -42 -51 -50 -66 -13 -27 -13 -31 12 -66 40 -59 104
-70 188 -31 15 7 27 17 27 21 0 5 16 -1 36 -13 36 -21 36 -22 29 -67 -4 -25
-8 -66 -9 -90 l-1 -43 75 -29 c41 -16 78 -29 81 -29 13 0 68 63 83 95 15 32
33 45 61 45 8 0 20 -23 29 -52 21 -72 38 -93 88 -111 41 -13 64 -14 115 -2 26
6 46 66 44 133 -1 39 2 44 33 58 33 16 35 16 67 -9 19 -14 60 -32 91 -39 62
-16 73 -13 118 32 19 19 13 59 -19 120 -27 52 -27 53 9 105 26 37 33 42 62 40
135 -13 141 -11 160 39 l17 45 -33 33 c-18 18 -47 41 -65 50 -32 18 -32 19
-26 70 9 80 11 83 68 101 61 19 97 48 92 74 -14 71 -15 72 -53 82 -20 6 -56
11 -78 11 -40 0 -42 1 -63 51 -27 67 -27 80 7 112 15 14 36 42 46 61 l19 36
-28 39 c-30 44 -28 44 -148 15 -55 -14 -59 -14 -87 6 -39 28 -51 51 -38 74 5
9 11 44 13 76 l3 58 -40 18 c-22 10 -52 17 -66 16 -47 -4 -106 -40 -131 -81
-13 -21 -29 -38 -35 -37 -42 8 -53 19 -65 64 -15 61 -44 109 -65 109 -9 0 -17
-1 -18 -3z m97 -730 c27 -57 5 -137 -44 -164 -16 -8 -25 -4 -50 27 -46 56 -42
121 11 180 19 20 22 21 43 7 13 -8 31 -31 40 -50z"/>
</g>
</svg>
